{"title":"Downton Abbey S06E07 x264 RB58.mp4","uid":12669769,"size":551560827,"categoryP":"video","categoryS":"tv_shows","magnet":"?xt=urn:btih:0081bc8e4da602dd890ff4bbfaf2a4c08095f4d7&amp;dn=Downton+Abbey+S06E07+x264+RB58.mp4&amp;tr=udp%3A%2F%2Ftracker.leechers-paradise.org%3A6969&amp;tr=udp%3A%2F%2Fzer0day.ch%3A1337&amp;tr=udp%3A%2F%2Fopen.demonii.com%3A1337&amp;tr=udp%3A%2F%2Ftracker.coppersurfer.tk%3A6969&amp;tr=udp%3A%2F%2Fexodus.desync.com%3A6969","seeders":0,"leechers":1,"uploader":"RedBaron58","files":1,"time":1446427001,"description":"Downton Abbey S06E07 x264 mp4\r\n \nhttp://www.imdb.com/title/tt1606375/\r\n\r\nTrailer:\r\n\r\n\r\nPlease be patient My intial upload speed is limited.\r\nThank you for your kind comments and feedback on my other torrents, your feedback is welcome.\r\n\r\n\r\nAbout the Episode:\r\nThe Crawleys watch Henry compete in a motor racing event, an occasion that leaves Mary reeling. \r\nViolet hatches a plan which surprises the family and delights Miss Denker, and learns more about \r\nAmelia's intentions in befriending Isobel. \r\nMolesley and Daisy rise to the challenges of examination day, Andy's secret is brought to light, \r\nThomas feels isolated, and Mrs Patmore and Mrs Hughes teach Carson a lesson\r\n \r\nStarring Maggie Smith, Hugh Bonneville and Michelle Dockery\r\n\r\nI hope you enjoy.\r\n\r\n\r\nTechnical:\r\n\r\nGeneral\r\nComplete name                            : H:Downton Abbey S06E07 x264 RB58.mp4\r\nFormat                                   : MPEG-4\r\nFormat profile                           : Base Media\r\nCodec ID                                 : isom\r\nFile size                                : 526 MiB\r\nDuration                                 : 48mn 3s\r\nOverall bit rate                         : 1 531 Kbps\r\nWriting application                      : Lavf54.63.104\r\n\r\nVideo\r\nID                                       : 1\r\nFormat                                   : AVC\r\nFormat/Info                              : Advanced Video Codec\r\nFormat profile                           :   \r\nFormat settings, CABAC                   : Yes\r\nFormat settings, ReFrames                : 4 frames\r\nCodec ID                                 : avc1\r\nCodec ID/Info                            : Advanced Video Coding\r\nDuration                                 : 48mn 3s\r\nBit rate                                 : 1 400 Kbps\r\nWidth                                    : 832 pixels\r\nHeight                                   : 468 pixels\r\nDisplay aspect ratio                     : 16:9\r\nFrame rate mode                          : Constant\r\nFrame rate                               : 25.000 fps\r\nColor space                              : YUV\r\nChroma subsampling                       : 4:2:0\r\nBit depth                                : 8 bits\r\nScan type                                : Progressive\r\nBits/(Pixel*Frame)                       : 0.144\r\nStream size                              : 481 MiB (91%)\r\nWriting library                          : x264 core 123 r2189 35cf912\r\nEncoding settings                        : cabac=1 / ref=3 / deblock=1:0:0\r\n\r\nAudio\r\nID                                       : 2\r\nFormat                                   : AAC\r\nFormat/Info                              : Advanced Audio Codec\r\nFormat profile                           : LC\r\nCodec ID                                 : 40\r\nDuration                                 : 48mn 2s\r\nBit rate mode                            : Constant\r\nBit rate                                 : 122 Kbps\r\nChannel(s)                               : 2 channels\r\nChannel positions                        : Front: L R\r\nSampling rate                            : 48.0 KHz\r\nCompression mode                         : Lossy\r\nStream size                              : 41.9 MiB (8%)","torrent":{"xt":"urn:btih:0081bc8e4da602dd890ff4bbfaf2a4c08095f4d7","amp;dn":"Downton+Abbey+S06E07+x264+RB58.mp4","amp;tr":["udp%3A%2F%2Ftracker.leechers-paradise.org%3A6969","udp%3A%2F%2Fzer0day.ch%3A1337","udp%3A%2F%2Fopen.demonii.com%3A1337","udp%3A%2F%2Ftracker.coppersurfer.tk%3A6969","udp%3A%2F%2Fexodus.desync.com%3A6969"],"infoHash":"0081bc8e4da602dd890ff4bbfaf2a4c08095f4d7","infoHashBuffer":{"type":"Buffer","data":[0,129,188,142,77,166,2,221,137,15,244,187,250,242,164,192,128,149,244,215]},"announce":[],"urlList":[]}}